<svg width="31" height="24" viewBox="0 0 31 24" fill="none" xmlns="http://www.w3.org/2000/svg">
	<g clip-path="url(#clip0)">
		<path d="M28.6192 1.16211H9.16506C7.88109 1.16211 6.83057 2.20727 6.83057 3.48469C6.83057 4.76211 7.88109 5.80727 9.16506 5.80727H28.6192C29.9031 5.80727 30.9536 4.76211 30.9536 3.48469C30.9536 2.20727 29.9031 1.16211 28.6192 1.16211Z" fill="white" />
		<path d="M25.6045 9.67773H6.15041C4.86644 9.67773 3.81592 10.7229 3.81592 12.0003C3.81592 13.2777 4.86644 14.3229 6.15041 14.3229H25.6045C26.8885 14.3229 27.939 13.2777 27.939 12.0003C27.939 10.7229 26.8885 9.67773 25.6045 9.67773Z" fill="white" />
		<path d="M22.5889 18.1951H3.13478C1.85081 18.1951 0.800293 19.2402 0.800293 20.5176C0.800293 21.7951 1.85081 22.8402 3.13478 22.8402H22.5889C23.8728 22.8402 24.9234 21.7951 24.9234 20.5176C24.9234 19.2402 23.8728 18.1951 22.5889 18.1951Z" fill="white" />
	</g>
	<defs>
		<clipPath id="clip0">
			<rect width="30.1538" height="24" fill="white" transform="translate(0.799805)" />
		</clipPath>
	</defs>
</svg>
