<svg width="26" height="26" viewBox="0 0 26 26" fill="none" xmlns="http://www.w3.org/2000/svg">
<g clip-path="url(#clip0)">
<path d="M6.32815 23.5654C8.26287 24.794 10.5478 25.5 13.003 25.5C19.8958 25.5 25.5 19.8925 25.5 13C25.5 6.10752 19.8958 0.5 13.003 0.5H12.997C6.10424 0.5 0.5 6.10598 0.5 13C0.5 15.641 1.32251 18.0967 2.72943 20.116L1.31496 24.3325L1.00102 25.2683L1.94125 24.9678L6.32815 23.5654Z" fill="#4CAF50" stroke="white"/>
<path d="M19.9853 17.9455C19.6958 18.763 18.5468 19.441 17.6303 19.639C17.0033 19.7725 16.1843 19.879 13.4273 18.736C9.90083 17.275 7.62983 13.6915 7.45283 13.459C7.28333 13.2265 6.02783 11.5615 6.02783 9.83953C6.02783 8.11753 6.90233 7.27903 7.25483 6.91903C7.54433 6.62353 8.02283 6.48853 8.48183 6.48853C8.63033 6.48853 8.76383 6.49603 8.88383 6.50203C9.23633 6.51703 9.41333 6.53803 9.64583 7.09453C9.93533 7.79203 10.6403 9.51403 10.7243 9.69103C10.8098 9.86803 10.8953 10.108 10.7753 10.3405C10.6628 10.5805 10.5638 10.687 10.3868 10.891C10.2098 11.095 10.0418 11.251 9.86483 11.47C9.70283 11.6605 9.51983 11.8645 9.72383 12.217C9.92783 12.562 10.6328 13.7125 11.6708 14.6365C13.0103 15.829 14.0963 16.21 14.4848 16.372C14.7743 16.492 15.1193 16.4635 15.3308 16.2385C15.5993 15.949 15.9308 15.469 16.2683 14.9965C16.5083 14.6575 16.8113 14.6155 17.1293 14.7355C17.4533 14.848 19.1678 15.6955 19.5203 15.871C19.8728 16.048 20.1053 16.132 20.1908 16.2805C20.2748 16.429 20.2748 17.1265 19.9853 17.9455Z" fill="#FAFAFA"/>
</g>
<defs>
<clipPath id="clip0">
<rect width="26" height="26" fill="white"/>
</clipPath>
</defs>
</svg>
