<svg width="40" height="40" viewBox="0 0 40 40" fill="none" xmlns="http://www.w3.org/2000/svg">
<path d="M38.8281 0H1.17188C0.524687 0 0 0.524687 0 1.17188V5.85938C0 6.50656 0.524687 7.03125 1.17188 7.03125H2.42188V29.375C2.42188 30.0222 2.94656 30.5469 3.59375 30.5469H18.8281V33.09C17.4423 33.5755 16.4453 34.8958 16.4453 36.4453C16.4453 38.4054 18.0399 40 20 40C21.9601 40 23.5547 38.4054 23.5547 36.4453C23.5547 34.8958 22.5577 33.5755 21.1719 33.09V30.5469H36.4062C37.0534 30.5469 37.5781 30.0222 37.5781 29.375V7.03125H38.8281C39.4753 7.03125 40 6.50656 40 5.85938V1.17188C40 0.524687 39.4753 0 38.8281 0ZM20 37.6562C19.3323 37.6562 18.7891 37.113 18.7891 36.4453C18.7891 35.7776 19.3323 35.2344 20 35.2344C20.6677 35.2344 21.2109 35.7776 21.2109 36.4453C21.2109 37.113 20.6677 37.6562 20 37.6562ZM35.2344 28.2031H4.76562V7.03125H35.2344V28.2031ZM37.6562 4.6875H2.34375V2.34375H37.6562V4.6875Z" fill="#E8C8A4"/>
<path d="M7.10938 22.4218C7.10938 23.069 7.63406 23.5937 8.28125 23.5937H19.9219C20.5691 23.5937 21.0937 23.069 21.0937 22.4218V14.1406H28.8896L28.5463 14.4839C28.0887 14.9415 28.0887 15.6835 28.5463 16.1411C29.0039 16.5988 29.7459 16.5989 30.2036 16.1411L32.5473 13.7974C33.005 13.3397 33.005 12.5978 32.5473 12.1401L30.2036 9.79637C29.746 9.33871 29.004 9.33871 28.5463 9.79637C28.0887 10.254 28.0887 10.996 28.5463 11.4536L28.8896 11.7969H19.9219C19.2747 11.7969 18.75 12.3216 18.75 12.9688V21.25H8.28125C7.63406 21.25 7.10938 21.7746 7.10938 22.4218Z" fill="#E8C8A4"/>
<path d="M32.5371 20.3203C32.0795 19.8626 31.3375 19.8626 30.8798 20.3203L29.9416 21.2585L29.0034 20.3203C28.5459 19.8626 27.8038 19.8626 27.3462 20.3203C26.8885 20.7779 26.8885 21.5199 27.3462 21.9776L28.2844 22.9158L27.3462 23.854C26.8885 24.3116 26.8885 25.0536 27.3462 25.5112C27.8038 25.9689 28.5458 25.969 29.0034 25.5112L29.9416 24.573L30.8798 25.5112C31.3374 25.9689 32.0795 25.969 32.5371 25.5112C32.9948 25.0536 32.9948 24.3116 32.5371 23.854L31.5989 22.9158L32.5371 21.9776C32.9948 21.5199 32.9948 20.7779 32.5371 20.3203Z" fill="#E8C8A4"/>
<path d="M7.50242 14.9644C7.96 15.422 8.70203 15.4221 9.15969 14.9644L10.0979 14.0261L11.0361 14.9644C11.4937 15.422 12.2357 15.4221 12.6934 14.9644C13.151 14.5067 13.151 13.7647 12.6934 13.3071L11.7552 12.3689L12.6934 11.4307C13.151 10.973 13.151 10.2311 12.6934 9.77342C12.2358 9.31576 11.4938 9.31576 11.0361 9.77342L10.0979 10.7116L9.15969 9.7735C8.70211 9.31584 7.96008 9.31584 7.50242 9.7735C7.04477 10.2312 7.04477 10.9731 7.50242 11.4308L8.44063 12.369L7.50242 13.3071C7.04477 13.7647 7.04477 14.5067 7.50242 14.9644Z" fill="#E8C8A4"/>
</svg>
