<svg width="40" height="40" viewBox="0 0 40 40" fill="none" xmlns="http://www.w3.org/2000/svg">
<path d="M35.2941 6.98035C32.6993 6.98035 30.5882 9.09141 30.5882 11.6862V12.8627H0V40H35.2941C37.8889 40 40 37.8889 40 35.2941V11.6862C40 9.09141 37.8889 6.98035 35.2941 6.98035ZM24.7059 15.2156H30.5882V22.3529H24.7059V15.2156ZM9.41177 37.647H2.35294V30.5882H9.41177V37.647ZM21.1765 28.2352H17.6471V30.5882H21.1765V37.647H11.7647V30.5882H15.2941V28.2352H11.7647H10.5882H2.35294V24.7058H9.41177V22.3529H2.35294V15.2156H11.7647V24.7058H16.4706V22.3529H14.1176V15.2156H22.3529V22.3529H18.8235V24.7058H22.3529H23.5294H30.5882V28.2352H22.3529H21.1765ZM35.2941 37.647H23.5294V30.5882H30.5882V35.2941H32.9412C32.9412 33.9967 33.9967 32.9411 35.2941 32.9411C36.5915 32.9411 37.6471 33.9967 37.6471 35.2941C37.6471 36.5915 36.5915 37.647 35.2941 37.647ZM37.6471 31.2197C36.195 30.3779 34.3956 30.3765 32.9412 31.2197V11.6862C32.9412 10.3888 33.9967 9.33329 35.2941 9.33329C36.5915 9.33329 37.6471 10.3888 37.6471 11.6862V31.2197Z" fill="#E8C8A4"/>
<path d="M3.52941 7.05882H27.0835L35.9071 3.52941L27.0835 0H3.52941C1.58322 0 0 1.58329 0 3.52941C0 5.47553 1.58322 7.05882 3.52941 7.05882ZM26.6937 2.37827L29.5716 3.52941L26.6937 4.68055C26.5311 3.92157 26.5311 3.13725 26.6937 2.37827ZM8.2353 2.35294H24.3082C24.1898 3.13294 24.1898 3.92588 24.3082 4.70588H8.2353V2.35294ZM3.52941 2.35294H5.88235V4.70588H3.52941C2.88063 4.70588 2.35294 4.17812 2.35294 3.52941C2.35294 2.88071 2.88063 2.35294 3.52941 2.35294Z" fill="#E8C8A4"/>
</svg>
