<svg width="40" height="40" viewBox="0 0 40 40" fill="none" xmlns="http://www.w3.org/2000/svg">
<path d="M40 30.5882V0H0V30.5882H13.7873L13.1991 32.9412H8.23529V35.2941H12.6108L12.0226 37.6471H9.41177V40H13.8597L15.0362 35.2941H18.8235V40H21.1765V35.2941H24.9638L26.1403 40H30.5882V37.6471H27.9774L27.3892 35.2941H31.7647V32.9412H26.8009L26.2127 30.5882H40ZM2.35294 2.35294H37.6471V28.2353H2.35294V2.35294ZM15.6245 32.9412L16.2127 30.5882H18.8235V32.9412H15.6245ZM24.3755 32.9412H21.1765V30.5882H23.7873L24.3755 32.9412Z" fill="#E8C8A4"/>
<path d="M31.7642 4.70581H29.4113V7.25295L19.9995 4.74314L5.88184 8.50785V14.1176H8.23478V23.5293H5.88184V25.8823H34.1171V23.5293H31.7642V14.1176H34.1171V8.50785L31.7642 7.8804V4.70581ZM17.6465 23.5293H15.2936V18.8235H17.6465V23.5293ZM29.4113 23.5293H19.9995V16.4705H12.9407V23.5293H10.5877V14.1176H29.4113V23.5293ZM31.7642 11.7646H8.23478V10.3155L19.9995 7.17828L31.7642 10.3155V11.7646Z" fill="#E8C8A4"/>
</svg>
