<svg width="20" height="20" viewBox="0 0 20 20" fill="none" xmlns="http://www.w3.org/2000/svg">
<path d="M19.1667 15.8333H16.9475C16.5867 14.6325 15.4833 13.75 14.1667 13.75C12.85 13.75 11.7475 14.6325 11.3859 15.8333H0.83332C0.37332 15.8333 0 16.2067 0 16.6667C0 17.1267 0.37332 17.5 0.83332 17.5H11.3858C11.7466 18.7008 12.85 19.5833 14.1666 19.5833C15.4833 19.5833 16.5858 18.7008 16.9475 17.5H19.1666C19.6275 17.5 20 17.1267 20 16.6667C20 16.2067 19.6275 15.8333 19.1667 15.8333ZM14.1667 17.9167C13.4775 17.9167 12.9167 17.3559 12.9167 16.6667C12.9167 15.9775 13.4775 15.4167 14.1667 15.4167C14.8559 15.4167 15.4167 15.9775 15.4167 16.6667C15.4167 17.3559 14.8558 17.9167 14.1667 17.9167Z" fill="#2E2E2E"/>
<path d="M19.1667 2.49982H16.9475C16.5858 1.299 15.4833 0.416504 14.1667 0.416504C12.85 0.416504 11.7475 1.299 11.3858 2.49982H0.83332C0.37332 2.49982 0 2.87314 0 3.33314C0 3.79314 0.37332 4.16647 0.83332 4.16647H11.3858C11.7475 5.36732 12.85 6.24983 14.1667 6.24983C15.4834 6.24983 16.5859 5.36732 16.9475 4.1665H19.1667C19.6275 4.1665 20 3.79318 20 3.33318C20 2.87318 19.6275 2.49982 19.1667 2.49982ZM14.1667 4.58315C13.4775 4.58315 12.9167 4.02232 12.9167 3.33314C12.9167 2.64397 13.4775 2.08314 14.1667 2.08314C14.8559 2.08314 15.4167 2.64397 15.4167 3.33314C15.4167 4.02232 14.8558 4.58315 14.1667 4.58315Z" fill="#2E2E2E"/>
<path d="M19.1667 9.16682H8.61418C8.2525 7.966 7.15 7.0835 5.83336 7.0835C4.51672 7.0835 3.41418 7.966 3.05254 9.16682H0.83332C0.37332 9.16682 0 9.54014 0 10.0001C0 10.4601 0.37332 10.8335 0.83332 10.8335H3.0525C3.41418 12.0343 4.51668 12.9168 5.83332 12.9168C7.14996 12.9168 8.2525 12.0343 8.61414 10.8335H19.1666C19.6275 10.8335 20 10.4601 20 10.0001C20 9.54014 19.6275 9.16682 19.1667 9.16682ZM5.83332 11.2501C5.14414 11.2501 4.58332 10.6893 4.58332 10.0001C4.58332 9.31096 5.14414 8.75014 5.83332 8.75014C6.5225 8.75014 7.08332 9.31096 7.08332 10.0001C7.08332 10.6893 6.5225 11.2501 5.83332 11.2501Z" fill="#2E2E2E"/>
</svg>
