<svg width="60" height="60" viewBox="0 0 60 60" fill="none" xmlns="http://www.w3.org/2000/svg">
<path d="M51.2665 23.4559C53.2307 21.6917 54.4688 19.1346 54.4688 16.293V15.7266H56.168C57.1064 15.7266 57.8672 14.9658 57.8672 14.0273C57.8672 13.0889 57.1064 12.3281 56.168 12.3281H55.467C54.738 7.75236 51.1148 4.12917 46.5391 3.4002V2.69922C46.5391 1.7608 45.7783 1 44.8398 1C43.9014 1 43.1406 1.7608 43.1406 2.69922V3.4002C38.5649 4.12917 34.9417 7.75236 34.2127 12.3281H33.5117C32.5733 12.3281 31.8125 13.0889 31.8125 14.0273C31.8125 14.9658 32.5733 15.7266 33.5117 15.7266H35.2109V16.293C35.2109 19.2049 36.512 21.8169 38.5612 23.5841C37.2198 24.1611 35.9762 24.9634 34.8875 25.9645C33.9024 25.4603 32.8299 25.1039 31.6992 24.9238V24.2227C31.6992 23.2842 30.9384 22.5234 30 22.5234C29.0616 22.5234 28.3008 23.2842 28.3008 24.2227V24.9236C27.1701 25.1038 26.0976 25.4601 25.1125 25.9644C24.0238 24.9633 22.7804 24.1611 21.4388 23.584C23.488 21.8169 24.7891 19.2049 24.7891 16.293V15.7266H26.4883C27.4267 15.7266 28.1875 14.9658 28.1875 14.0273C28.1875 13.0889 27.4267 12.3281 26.4883 12.3281H25.7873C25.0583 7.75236 21.4351 4.12917 16.8594 3.4002V2.69922C16.8594 1.7608 16.0986 1 15.1602 1C14.2217 1 13.4609 1.7608 13.4609 2.69922V3.4002C8.88517 4.12917 5.26198 7.75236 4.53302 12.3281H3.83203C2.89361 12.3281 2.13281 13.0889 2.13281 14.0273C2.13281 14.9658 2.89361 15.7266 3.83203 15.7266H5.53125V16.293C5.53125 19.1346 6.76941 21.6917 8.73348 23.4559C4.20008 25.3216 1 29.786 1 34.9844V45.7461C1 46.6845 1.7608 47.4453 2.69922 47.4453H20.1016C17.4847 49.8297 15.8398 53.2634 15.8398 57.0742C15.8398 58.0126 16.6006 58.7734 17.5391 58.7734H42.4609C43.3994 58.7734 44.1602 58.0126 44.1602 57.0742C44.1602 53.2634 42.5153 49.8297 39.8984 47.4453H57.3008C58.2392 47.4453 59 46.6845 59 45.7461V34.9844C59 29.786 55.7999 25.3216 51.2665 23.4559ZM37.6745 12.3281C38.3142 9.63022 40.4428 7.50336 43.1406 6.86355V7.23047C43.1406 8.16889 43.9014 8.92969 44.8398 8.92969C45.7783 8.92969 46.5391 8.16889 46.5391 7.23047V6.86355C49.2369 7.50336 51.3656 9.63022 52.0052 12.3281H37.6745ZM51.0703 15.7266V16.293C51.0703 19.7284 48.2753 22.5234 44.8398 22.5234C41.4044 22.5234 38.6094 19.7284 38.6094 16.293V15.7266H51.0703ZM30 30.4531C30.9384 30.4531 31.6992 29.6923 31.6992 28.7539V28.387C34.397 29.0268 36.5258 31.1537 37.1654 33.8516H22.8346C23.4743 31.1537 25.603 29.0268 28.3008 28.387V28.7539C28.3008 29.6923 29.0616 30.4531 30 30.4531ZM36.2305 37.8164C36.2305 41.2519 33.4355 44.0469 30 44.0469C26.5645 44.0469 23.7695 41.2519 23.7695 37.8164V37.25H36.2305V37.8164ZM7.99478 12.3281C8.63436 9.63022 10.7631 7.50336 13.4609 6.86355V7.23047C13.4609 8.16889 14.2217 8.92969 15.1602 8.92969C16.0986 8.92969 16.8594 8.16889 16.8594 7.23047V6.86355C19.5572 7.50336 21.6859 9.63022 22.3255 12.3281H7.99478ZM21.3906 15.7266V16.293C21.3906 19.7284 18.5956 22.5234 15.1602 22.5234C11.7247 22.5234 8.92969 19.7284 8.92969 16.293V15.7266H21.3906ZM4.39844 34.9844C4.39844 29.9873 8.46387 25.9219 13.4609 25.9219H16.293C18.4956 25.9219 20.6124 26.6771 22.3075 28.0331C20.7852 29.5904 19.7306 31.6061 19.373 33.8516H18.6719C17.7335 33.8516 16.9727 34.6124 16.9727 35.5508C16.9727 36.4892 17.7335 37.25 18.6719 37.25H20.3711V37.8164C20.3711 40.191 21.2369 42.3661 22.6672 44.0469H4.39844V34.9844ZM40.6116 55.375H19.3884C20.1934 50.8733 24.1375 47.4453 28.8672 47.4453H31.1328C35.8624 47.4453 39.8066 50.8733 40.6116 55.375ZM55.6016 44.0469H37.3328C38.7631 42.3661 39.6289 40.191 39.6289 37.8164V37.25H41.3281C42.2665 37.25 43.0273 36.4892 43.0273 35.5508C43.0273 34.6124 42.2665 33.8516 41.3281 33.8516H40.6271C40.2694 31.6062 39.2148 29.5904 37.6926 28.0331C39.3876 26.6771 41.5044 25.9219 43.707 25.9219H46.5391C51.5361 25.9219 55.6016 29.9873 55.6016 34.9844V44.0469Z" fill="#E8C8A4"/>
</svg>
