<svg width="60" height="60" viewBox="0 0 60 60" fill="none" xmlns="http://www.w3.org/2000/svg">
<g clip-path="url(#clip0)">
<path d="M59.7839 47.0911L56.2991 36.9493C57.9789 33.5154 58.8666 29.6965 58.8725 25.8541C58.8829 19.1728 56.2979 12.8556 51.5938 8.06614C46.8887 3.27574 40.6189 0.57913 33.9392 0.47331C27.0128 0.363857 20.5024 2.99847 15.6078 7.89293C10.8882 12.6124 8.27042 18.8343 8.18756 25.483C3.53592 28.9853 0.790324 34.4457 0.799348 40.278C0.803684 43.0073 1.41798 45.7203 2.58201 48.1736L0.181651 55.159C-0.230967 56.3598 0.0704399 57.6636 0.968332 58.5615C1.60021 59.1935 2.4333 59.5299 3.29006 59.5299C3.65053 59.5299 4.01521 59.4704 4.37088 59.3482L11.3563 56.9478C13.8096 58.1119 16.5227 58.7262 19.252 58.7305C19.2618 58.7305 19.2712 58.7305 19.281 58.7305C25.2002 58.7303 30.7021 55.9139 34.1916 51.1482C37.8229 51.0526 41.4158 50.1736 44.6639 48.5846L54.8058 52.0695C55.2284 52.2147 55.6617 52.2855 56.09 52.2855C57.1082 52.2855 58.0982 51.8857 58.8492 51.1345C59.9161 50.0675 60.2742 48.5182 59.7839 47.0911ZM19.2808 55.1591C19.2732 55.1591 19.2651 55.1591 19.2575 55.1591C16.8418 55.1554 14.4428 54.5599 12.3204 53.437C11.884 53.2063 11.3717 53.1663 10.905 53.3266L3.74217 55.7879L6.20346 48.6252C6.36377 48.1584 6.32393 47.6461 6.09307 47.2098C4.97018 45.0873 4.37463 42.6884 4.37088 40.2726C4.3649 36.3868 5.87651 32.7037 8.51991 29.9458C9.38335 35.2094 11.892 40.0598 15.7805 43.8792C19.6403 47.6703 24.4921 50.0841 29.7271 50.8733C26.9629 53.5978 23.2368 55.1591 19.2808 55.1591ZM56.3236 48.6091C56.222 48.7107 56.1015 48.7384 55.9661 48.6917L45.1088 44.9609C44.9203 44.8961 44.7241 44.864 44.5287 44.864C44.2405 44.864 43.9534 44.9337 43.6936 45.0713C40.5936 46.7113 37.0906 47.581 33.563 47.5864C33.5514 47.5864 33.5409 47.5864 33.5293 47.5864C21.7094 47.5864 11.9461 37.9847 11.7589 26.1677C11.6645 20.2163 13.9284 14.623 18.1332 10.4182C22.338 6.2134 27.9322 3.95039 33.8827 4.04414C45.7112 4.23175 55.3194 14.0131 55.3011 25.8484C55.2956 29.376 54.426 32.8791 52.7862 35.9788C52.5553 36.4151 52.5155 36.9275 52.6758 37.3942L56.4064 48.2514C56.453 48.3874 56.4251 48.5077 56.3236 48.6091Z" fill="#E8C8A4"/>
<path d="M44.1673 16.3491H22.8907C21.9045 16.3491 21.105 17.1487 21.105 18.1348C21.105 19.1211 21.9046 19.9205 22.8907 19.9205H44.1673C45.1536 19.9205 45.953 19.121 45.953 18.1348C45.953 17.1487 45.1536 16.3491 44.1673 16.3491Z" fill="#E8C8A4"/>
<path d="M44.1673 23.6934H22.8907C21.9045 23.6934 21.105 24.4929 21.105 25.4791C21.105 26.4652 21.9046 27.2648 22.8907 27.2648H44.1673C45.1536 27.2648 45.953 26.4652 45.953 25.4791C45.953 24.4929 45.1536 23.6934 44.1673 23.6934Z" fill="#E8C8A4"/>
<path d="M35.9773 31.0374H22.8906C21.9043 31.0374 21.1049 31.8369 21.1049 32.8231C21.1049 33.8093 21.9045 34.6088 22.8906 34.6088H35.9772C36.9634 34.6088 37.7629 33.8092 37.7629 32.8231C37.7629 31.8369 36.9636 31.0374 35.9773 31.0374Z" fill="#E8C8A4"/>
</g>
<defs>
<clipPath id="clip0">
<rect width="60" height="60" fill="white"/>
</clipPath>
</defs>
</svg>
