<svg width="60" height="60" viewBox="0 0 60 60" fill="none" xmlns="http://www.w3.org/2000/svg">
<g clip-path="url(#clip0)">
<path d="M55.4867 16.2794L55.4848 16.2327C55.4587 15.6564 55.4413 15.0466 55.4308 14.3682C55.3818 11.06 52.752 8.32349 49.4433 8.13855C42.5448 7.75357 37.2082 5.50413 32.6484 1.05971L32.6095 1.02263C31.1222 -0.341041 28.8788 -0.341041 27.391 1.02263L27.3521 1.05971C22.7923 5.50413 17.4558 7.75357 10.5573 8.13901C7.24902 8.32349 4.61872 11.06 4.56974 14.3687C4.55967 15.0425 4.54182 15.6523 4.51573 16.2327L4.51298 16.3412C4.37885 23.3756 4.21223 32.1303 7.14099 40.0766C8.7514 44.4464 11.1904 48.2449 14.3897 51.3673C18.0334 54.9232 22.8061 57.7463 28.5748 59.7577C28.7625 59.8231 28.9575 59.8762 29.1562 59.9161C29.4363 59.9719 29.7183 59.9998 30.0003 59.9998C30.2823 59.9998 30.5647 59.9719 30.8444 59.9161C31.0431 59.8762 31.2394 59.8227 31.428 59.7568C37.1899 57.7417 41.9575 54.9173 45.5981 51.3618C48.796 48.2385 51.235 44.4391 52.8467 40.0684C55.7865 32.0983 55.6203 23.3271 55.4867 16.2794ZM49.5435 38.8503C46.4545 47.2255 40.1489 52.9773 30.2662 56.4334C30.231 56.4453 30.1934 56.4558 30.1545 56.4636C30.0525 56.4838 29.9485 56.4838 29.8451 56.4632C29.8066 56.4554 29.7691 56.4453 29.7343 56.4334C19.8412 52.9837 13.5314 47.2351 10.4447 38.8594C7.74524 31.5348 7.89813 23.4983 8.03317 16.4085L8.03409 16.3691C8.06155 15.7598 8.07986 15.1217 8.08993 14.4204C8.11191 12.9515 9.28195 11.7361 10.7537 11.6542C14.6575 11.4363 18.087 10.6819 21.2382 9.34796C24.3854 8.01587 27.1805 6.13813 29.7824 3.60762C29.9147 3.49592 30.0863 3.49547 30.2182 3.60762C32.8205 6.13813 35.6156 8.01587 38.7623 9.34796C41.9135 10.6819 45.3431 11.4363 49.2474 11.6542C50.7191 11.7361 51.8891 12.9515 51.9106 14.4209C51.9211 15.1258 51.9395 15.764 51.9669 16.3691C52.1015 23.4672 52.2507 31.5101 49.5435 38.8503Z" fill="#E8C8A4"/>
<path d="M29.9992 15.0481C21.754 15.0481 15.0464 21.7562 15.0464 30.0009C15.0464 38.2462 21.754 44.9543 29.9992 44.9543C38.244 44.9543 44.9521 38.2462 44.9521 30.0009C44.9521 21.7562 38.244 15.0481 29.9992 15.0481ZM29.9992 41.4331C23.6954 41.4331 18.567 36.3048 18.567 30.0009C18.567 23.6971 23.6954 18.5688 29.9992 18.5688C36.3026 18.5688 41.431 23.6971 41.431 30.0009C41.431 36.3048 36.3026 41.4331 29.9992 41.4331Z" fill="#E8C8A4"/>
<path d="M34.2966 25.3587L27.3514 32.3039L25.4664 30.4188C24.7788 29.7312 23.6642 29.7312 22.9766 30.4188C22.2895 31.1063 22.2895 32.221 22.9766 32.9081L26.1068 36.0383C26.4506 36.3821 26.901 36.5537 27.3514 36.5537C27.8019 36.5537 28.2523 36.3821 28.5961 36.0383L36.7864 27.848C37.4735 27.1604 37.4735 26.0458 36.7864 25.3587C36.0989 24.6706 34.9842 24.6706 34.2966 25.3587Z" fill="#E8C8A4"/>
</g>
<defs>
<clipPath id="clip0">
<rect width="60" height="60" fill="white"/>
</clipPath>
</defs>
</svg>
