<svg width="60" height="60" viewBox="0 0 60 60" fill="none" xmlns="http://www.w3.org/2000/svg">
<path d="M29.9999 37.1484C29.0307 37.1484 28.2421 36.3599 28.2421 35.3906C28.2421 34.6826 28.6634 34.0467 29.3154 33.7705C30.1026 33.4372 31.0445 33.7216 31.9005 34.5509C32.5977 35.2263 33.7106 35.2087 34.386 34.5116C35.0616 33.8143 35.0439 32.7015 34.3468 32.0261C33.5532 31.2572 32.671 30.7138 31.7577 30.4071V28.3594C31.7577 27.3886 30.9707 26.6016 29.9999 26.6016C29.0292 26.6016 28.2421 27.3886 28.2421 28.3594V30.4185C28.1424 30.454 28.043 30.4915 27.9445 30.5332C25.9897 31.3611 24.7265 33.2678 24.7265 35.3906C24.7265 38.2984 27.0922 40.6641 29.9999 40.6641C30.9692 40.6641 31.7577 41.4526 31.7577 42.4219C31.7577 43.1585 31.2931 43.8227 30.6016 44.0746C29.6986 44.4033 28.6476 43.9574 27.7181 42.8505C27.0937 42.1071 25.985 42.0107 25.2416 42.635C24.4981 43.2594 24.4017 44.3682 25.026 45.1116C25.9763 46.243 27.0824 47.0189 28.2422 47.4094V49.4531C28.2422 50.4239 29.0293 51.2109 30.0001 51.2109C30.9708 51.2109 31.7579 50.4239 31.7579 49.4531V47.3938C31.7736 47.3883 31.7893 47.3835 31.8049 47.3778C33.8794 46.6222 35.2734 44.6305 35.2734 42.4219C35.2734 39.5141 32.9077 37.1484 29.9999 37.1484Z" fill="#E8C8A4"/>
<path d="M46.2796 26.3975C44.1904 23.8273 41.8021 21.7795 39.1804 20.307C39.6097 19.7989 39.9485 19.2033 40.1673 18.5394C41.0258 15.9251 39.7718 12.8196 36.5711 11.8079L41.058 3.98391C41.6242 2.99648 41.1156 1.73883 40.024 1.42148C36.7798 0.478242 33.4073 0 30 0C26.5927 0 23.2202 0.478242 19.976 1.42148C18.8831 1.73918 18.3765 2.99766 18.942 3.98391L23.4289 11.808C20.2409 12.8146 18.971 15.9155 19.8332 18.5408C20.0512 19.2029 20.3899 19.7982 20.8206 20.3065C18.1985 21.7791 15.81 23.827 13.7205 26.3975C9.54387 31.5359 7.14844 38.0171 7.14844 44.1797C7.14844 56.9638 17.3493 60 30 60C42.6596 60 52.8516 56.9586 52.8516 44.1797C52.8516 38.0171 50.4561 31.5359 46.2796 26.3975ZM23.1441 4.2443C25.3867 3.7602 27.6841 3.51562 30 3.51562C32.3159 3.51562 34.6133 3.7602 36.8559 4.2443L32.9849 10.9945C31.0022 10.7177 28.9984 10.7179 27.0152 10.9946L23.1441 4.2443ZM24.2925 15.2222C27.3177 14.2298 30.4827 14.0418 33.5597 14.6569C33.5633 14.6576 33.5671 14.6583 33.5707 14.659C34.2879 14.8029 35.0003 14.9902 35.705 15.2214C36.6263 15.525 37.1297 16.5214 36.8277 17.441C36.6082 18.107 36.0287 18.5657 35.347 18.64C33.5944 18.0912 31.8067 17.8125 30 17.8125C28.197 17.8125 26.4128 18.09 24.6635 18.6366C23.9713 18.5653 23.3904 18.1034 23.1728 17.4427C22.8703 16.5214 23.3738 15.5249 24.2925 15.2222ZM30 56.5078C16.2661 56.5078 10.6641 52.9195 10.6641 44.1797C10.6641 38.8896 12.8265 33.0711 16.4484 28.6151C20.2682 23.916 25.0808 21.3281 30 21.3281C35.4148 21.3281 40.1509 24.4315 43.5516 28.6151C47.1735 33.0711 49.3359 38.8896 49.3359 44.1797C49.3359 52.9195 43.7339 56.5078 30 56.5078Z" fill="#E8C8A4"/>
</svg>
