<svg width="50" height="50" viewBox="0 0 50 50" fill="none" xmlns="http://www.w3.org/2000/svg">
<path d="M42.8656 34.375C43.9443 34.375 44.8187 33.5006 44.8187 32.4219V7.8125C44.8187 3.50469 41.314 0 37.0062 0H12.9937C8.6859 0 5.18121 3.50469 5.18121 7.8125V42.1875C5.18121 46.4953 8.6859 50 12.9937 50H37.0062C41.3141 50 44.8187 46.4953 44.8188 42.1875C44.8188 41.1088 43.9444 40.2344 42.8657 40.2344C41.787 40.2344 40.9126 41.1088 40.9126 42.1875C40.9126 44.3414 39.1602 46.0938 37.0063 46.0938H12.9937C10.8398 46.0938 9.08746 44.3414 9.08746 42.1875V7.8125C9.08746 5.65859 10.8398 3.90625 12.9937 3.90625H37.0063C39.1602 3.90625 40.9126 5.65859 40.9126 7.8125V32.4219C40.9125 33.5006 41.787 34.375 42.8656 34.375Z" fill="#E8C8A4"/>
<path d="M35.0532 11.7188H14.936C13.8573 11.7188 12.9828 12.5932 12.9828 13.6719C12.9828 14.7506 13.8573 15.625 14.936 15.625H35.0532C36.1319 15.625 37.0063 14.7506 37.0063 13.6719C37.0063 12.5932 36.1318 11.7188 35.0532 11.7188Z" fill="#E8C8A4"/>
<path d="M35.0532 19.5312H14.936C13.8573 19.5312 12.9828 20.4057 12.9828 21.4844C12.9828 22.5631 13.8573 23.4375 14.936 23.4375H35.0532C36.1319 23.4375 37.0063 22.5631 37.0063 21.4844C37.0063 20.4057 36.1318 19.5312 35.0532 19.5312Z" fill="#E8C8A4"/>
<path d="M27.1537 27.3438H14.936C13.8573 27.3438 12.9828 28.2182 12.9828 29.2969C12.9828 30.3756 13.8573 31.25 14.936 31.25H27.1539C28.2327 31.25 29.107 30.3756 29.107 29.2969C29.1069 28.2182 28.2325 27.3438 27.1537 27.3438Z" fill="#E8C8A4"/>
</svg>
