<svg width="19" height="19" viewBox="0 0 19 19" fill="none" xmlns="http://www.w3.org/2000/svg">
<path d="M11.7365 6.09008L11.9691 6.56151L12.4894 6.63711L17.4903 7.36382L13.8713 10.8912L13.4948 11.2582L13.5837 11.7764L14.4381 16.7571L9.96523 14.4055L9.49988 14.1608L9.03452 14.4055L4.56151 16.7571L5.41561 11.7763L5.50446 11.2582L5.12803 10.8912L1.50943 7.36383L6.51029 6.63711L7.03053 6.56151L7.2632 6.0901L9.49988 1.55843L11.7365 6.09008ZM3.76614 17.1753C3.76632 17.1752 3.76651 17.1751 3.7667 17.175L3.7663 17.1752L3.76614 17.1753ZM9.10222 0.752709L9.10229 0.752843L9.10222 0.752709Z" stroke="#EFC981" stroke-width="2"/>
</svg>
