<svg width="31" height="24" viewBox="0 0 31 24" fill="none" xmlns="http://www.w3.org/2000/svg">
<g clip-path="url(#clip0)">
<path d="M28.6194 1.16211H9.1653C7.88133 1.16211 6.83081 2.20727 6.83081 3.48469C6.83081 4.76211 7.88133 5.80727 9.1653 5.80727H28.6194C29.9034 5.80727 30.9539 4.76211 30.9539 3.48469C30.9539 2.20727 29.9034 1.16211 28.6194 1.16211Z" fill="white"/>
<path d="M25.6046 9.67773H6.15047C4.8665 9.67773 3.81598 10.7229 3.81598 12.0003C3.81598 13.2777 4.8665 14.3229 6.15047 14.3229H25.6046C26.8885 14.3229 27.9391 13.2777 27.9391 12.0003C27.9391 10.7229 26.8885 9.67773 25.6046 9.67773Z" fill="white"/>
<path d="M22.5889 18.1951H3.13485C1.85088 18.1951 0.800354 19.2402 0.800354 20.5176C0.800354 21.7951 1.85088 22.8402 3.13485 22.8402H22.5889C23.8729 22.8402 24.9234 21.7951 24.9234 20.5176C24.9234 19.2402 23.8729 18.1951 22.5889 18.1951Z" fill="white"/>
</g>
<defs>
<clipPath id="clip0">
<rect width="30.1538" height="24" fill="white" transform="translate(0.799988)"/>
</clipPath>
</defs>
</svg>
