<svg width="40" height="40" viewBox="0 0 40 40" fill="none" xmlns="http://www.w3.org/2000/svg">
<path d="M19.9995 0C12.2335 0 5.91559 6.41719 5.91559 14.3046V25.6958C5.91559 33.5832 12.2335 40 19.9995 40C27.765 40 34.0834 33.6027 34.0834 25.7395V14.3046C34.0834 6.41719 27.765 0 19.9995 0ZM31.4343 25.7395C31.4343 32.1422 26.305 37.351 19.9995 37.351C13.6944 37.351 8.56465 32.1223 8.56465 25.6954V14.3046C8.56465 7.87766 13.6944 2.64898 19.9995 2.64898C26.305 2.64898 31.4343 7.87766 31.4343 14.3046V25.7395Z" fill="#E8C8A4"/>
<path d="M19.9992 10.9489C19.2676 10.9489 18.6747 11.5418 18.6747 12.2734V16.9092C18.6747 17.6407 19.2676 18.2337 19.9992 18.2337C20.7308 18.2337 21.3237 17.6407 21.3237 16.9092V12.2734C21.3237 11.5418 20.7308 10.9489 19.9992 10.9489Z" fill="#E8C8A4"/>
</svg>
